HIERARCHY
ROOT Hips
{
	OFFSET 0.000000 71.427986 0.000000
	CHANNELS 6 Xposition Yposition Zposition Xrotation Yrotation Zrotation
	JOINT Pelvis
	{
		OFFSET 0.000000 0.000000 0.000000
		CHANNELS 3 Xrotation Yrotation Zrotation
		JOINT LeftUpLeg
		{
			OFFSET 6.797100 -2.508499 -1.318700
			CHANNELS 3 Xrotation Yrotation Zrotation
			JOINT LeftLeg
			{
				OFFSET 0.069008 -29.241863 0.690200
				CHANNELS 3 Xrotation Yrotation Zrotation
				JOINT LeftFoot
				{
					OFFSET -0.069008 -29.568123 -0.266800
					CHANNELS 3 Xrotation Yrotation Zrotation
					JOINT LeftToeBase
					{
						OFFSET 3.145500 -8.631000 16.059900
						CHANNELS 3 Xrotation Yrotation Zrotation
						End Site
						{
							OFFSET 0.000000 18.501587 0.000000
						}
					}
				}
			}
			JOINT Left_ShortSleeve
			{
				OFFSET 0.265923 -10.480953 1.153800
				CHANNELS 3 Xrotation Yrotation Zrotation
				End Site
				{
					OFFSET 1.725763 19.823879 0.000000
				}
			}
		}
		JOINT RightUpLeg
		{
			OFFSET -6.797100 -2.508499 -1.318700
			CHANNELS 3 Xrotation Yrotation Zrotation
			JOINT RightLeg
			{
				OFFSET -0.082453 -29.241932 0.688000
				CHANNELS 3 Xrotation Yrotation Zrotation
				JOINT RightFoot
				{
					OFFSET 0.082453 -29.568058 -0.264600
					CHANNELS 3 Xrotation Yrotation Zrotation
					JOINT RightToeBase
					{
						OFFSET -3.115300 -8.682800 16.113400
						CHANNELS 3 Xrotation Yrotation Zrotation
						End Site
						{
							OFFSET 0.000000 18.567114 0.000000
						}
					}
				}
			}
			JOINT Right_ShortSleeve
			{
				OFFSET -0.265923 -10.480953 1.153800
				CHANNELS 3 Xrotation Yrotation Zrotation
				End Site
				{
					OFFSET -1.725766 19.823910 0.000000
				}
			}
		}
	}
	JOINT Spine
	{
		OFFSET 0.000000 13.368103 0.470500
		CHANNELS 3 Xrotation Yrotation Zrotation
		JOINT Spine1
		{
			OFFSET 0.147000 13.837402 0.538800
			CHANNELS 3 Xrotation Yrotation Zrotation
			JOINT Spine2
			{
				OFFSET 0.168000 16.242897 -1.435500
				CHANNELS 3 Xrotation Yrotation Zrotation
				JOINT Neck
				{
					OFFSET 0.217200 18.631500 -1.679100
					CHANNELS 3 Xrotation Yrotation Zrotation
					JOINT Head
					{
						OFFSET 0.000000 6.599396 1.385900
						CHANNELS 3 Xrotation Yrotation Zrotation
						JOINT Hat
						{
							OFFSET -0.532200 27.220596 -10.096100
							CHANNELS 3 Xrotation Yrotation Zrotation
							End Site
							{
								OFFSET 0.000000 22.029861 0.000000
							}
						}
						JOINT HairD
						{
							OFFSET -10.777400 17.437393 -1.325900
							CHANNELS 3 Xrotation Yrotation Zrotation
							JOINT HairD1
							{
								OFFSET -3.290299 -11.051193 1.062200
								CHANNELS 3 Xrotation Yrotation Zrotation
								End Site
								{
									OFFSET 0.000000 11.579437 0.000000
								}
							}
						}
						JOINT HairB
						{
							OFFSET -10.777400 17.437393 1.467900
							CHANNELS 3 Xrotation Yrotation Zrotation
							JOINT HairB1
							{
								OFFSET -1.561200 -12.956299 3.590200
								CHANNELS 3 Xrotation Yrotation Zrotation
								End Site
								{
									OFFSET 0.000000 13.534866 0.000000
								}
							}
						}
						JOINT HairA
						{
							OFFSET 9.713100 17.437393 1.467900
							CHANNELS 3 Xrotation Yrotation Zrotation
							JOINT HairA1
							{
								OFFSET 1.561200 -12.956299 3.590200
								CHANNELS 3 Xrotation Yrotation Zrotation
								End Site
								{
									OFFSET 0.000000 13.534866 0.000000
								}
							}
						}
						JOINT HairC
						{
							OFFSET 9.713100 17.437393 -1.325900
							CHANNELS 3 Xrotation Yrotation Zrotation
							JOINT HairC1
							{
								OFFSET 3.290300 -11.051193 1.062200
								CHANNELS 3 Xrotation Yrotation Zrotation
								End Site
								{
									OFFSET 0.000000 11.579437 0.000000
								}
							}
						}
					}
				}
				JOINT LeftShoulder
				{
					OFFSET 5.101800 15.108002 -2.763700
					CHANNELS 3 Xrotation Yrotation Zrotation
					JOINT LeftArm
					{
						OFFSET 9.825497 2.506317 -1.597400
						CHANNELS 3 Xrotation Yrotation Zrotation
						JOINT LeftForeArm
						{
							OFFSET 21.966244 0.000000 0.000000
							CHANNELS 3 Xrotation Yrotation Zrotation
							JOINT LeftHand
							{
								OFFSET 33.879036 0.000000 0.000000
								CHANNELS 3 Xrotation Yrotation Zrotation
								JOINT LeftHandThumb1
								{
									OFFSET 6.715286 -2.359680 3.363841
									CHANNELS 3 Xrotation Yrotation Zrotation
									JOINT LeftHandThumb2
									{
										OFFSET 2.507072 -1.447464 1.447461
										CHANNELS 3 Xrotation Yrotation Zrotation
										JOINT LeftHandThumb3
										{
											OFFSET 2.898338 -1.673355 1.673357
											CHANNELS 3 Xrotation Yrotation Zrotation
											End Site
											{
												OFFSET -0.295959 3.727692 -0.131651
											}
										}
									}
								}
								JOINT LeftHandIndex1
								{
									OFFSET 14.190811 -0.254547 3.840278
									CHANNELS 3 Xrotation Yrotation Zrotation
									JOINT LeftHandIndex2
									{
										OFFSET 3.551727 0.000000 -0.000000
										CHANNELS 3 Xrotation Yrotation Zrotation
										JOINT LeftHandIndex3
										{
											OFFSET 2.894196 0.000000 0.000000
											CHANNELS 3 Xrotation Yrotation Zrotation
											End Site
											{
												OFFSET -1.000603 2.690872 0.366626
											}
										}
									}
								}
								JOINT LeftHandMiddle1
								{
									OFFSET 13.776489 0.000000 0.000000
									CHANNELS 3 Xrotation Yrotation Zrotation
									JOINT LeftHandMiddle2
									{
										OFFSET 3.438232 0.000000 0.000000
										CHANNELS 3 Xrotation Yrotation Zrotation
										JOINT LeftHandMiddle3
										{
											OFFSET 3.691551 0.000000 0.000000
											CHANNELS 3 Xrotation Yrotation Zrotation
											End Site
											{
												OFFSET -1.082298 3.499527 0.457670
											}
										}
									}
								}
								JOINT LeftHandRing1
								{
									OFFSET 13.966164 -0.268127 -3.067488
									CHANNELS 3 Xrotation Yrotation Zrotation
									JOINT LeftHandRing2
									{
										OFFSET 3.162567 0.000000 0.000000
										CHANNELS 3 Xrotation Yrotation Zrotation
										JOINT LeftHandRing3
										{
											OFFSET 3.324348 0.000000 0.000000
											CHANNELS 3 Xrotation Yrotation Zrotation
											End Site
											{
												OFFSET -0.861900 3.184998 0.405154
											}
										}
									}
								}
								JOINT LeftHandPinky1
								{
									OFFSET 13.131393 -0.168503 -5.746925
									CHANNELS 3 Xrotation Yrotation Zrotation
									JOINT LeftHandPinky2
									{
										OFFSET 2.849182 0.000000 0.000000
										CHANNELS 3 Xrotation Yrotation Zrotation
										JOINT LeftHandPinky3
										{
											OFFSET 2.805038 0.000000 0.000000
											CHANNELS 3 Xrotation Yrotation Zrotation
											End Site
											{
												OFFSET -0.882500 2.642609 0.325652
											}
										}
									}
								}
							}
							JOINT Left_Sleeve
							{
								OFFSET 6.592125 -0.646545 0.805568
								CHANNELS 3 Xrotation Yrotation Zrotation
								End Site
								{
									OFFSET -0.000179 20.275787 -0.000000
								}
							}
						}
					}
				}
				JOINT RightShoulder
				{
					OFFSET -5.731700 15.108002 -2.763700
					CHANNELS 3 Xrotation Yrotation Zrotation
					JOINT RightArm
					{
						OFFSET -9.825497 2.506317 -1.597400
						CHANNELS 3 Xrotation Yrotation Zrotation
						JOINT RightForeArm
						{
							OFFSET -21.966242 0.000000 0.000000
							CHANNELS 3 Xrotation Yrotation Zrotation
							JOINT RightHand
							{
								OFFSET -33.879032 0.000000 0.000000
								CHANNELS 3 Xrotation Yrotation Zrotation
								JOINT RightHandThumb1
								{
									OFFSET -6.715286 -2.359680 3.363841
									CHANNELS 3 Xrotation Yrotation Zrotation
									JOINT RightHandThumb2
									{
										OFFSET -2.507072 -1.447464 1.447461
										CHANNELS 3 Xrotation Yrotation Zrotation
										JOINT RightHandThumb3
										{
											OFFSET -2.898338 -1.673355 1.673357
											CHANNELS 3 Xrotation Yrotation Zrotation
											End Site
											{
												OFFSET 0.295959 3.727692 -0.131651
											}
										}
									}
								}
								JOINT RightHandIndex1
								{
									OFFSET -14.190811 -0.254547 3.840278
									CHANNELS 3 Xrotation Yrotation Zrotation
									JOINT RightHandIndex2
									{
										OFFSET -3.551727 0.000000 -0.000000
										CHANNELS 3 Xrotation Yrotation Zrotation
										JOINT RightHandIndex3
										{
											OFFSET -2.894196 0.000000 0.000000
											CHANNELS 3 Xrotation Yrotation Zrotation
											End Site
											{
												OFFSET 1.000603 2.690872 0.366626
											}
										}
									}
								}
								JOINT RightHandMiddle1
								{
									OFFSET -13.776489 0.000000 0.000000
									CHANNELS 3 Xrotation Yrotation Zrotation
									JOINT RightHandMiddle2
									{
										OFFSET -3.438232 0.000000 0.000000
										CHANNELS 3 Xrotation Yrotation Zrotation
										JOINT RightHandMiddle3
										{
											OFFSET -3.691551 0.000000 0.000000
											CHANNELS 3 Xrotation Yrotation Zrotation
											End Site
											{
												OFFSET 1.082298 3.499527 0.457670
											}
										}
									}
								}
								JOINT RightHandRing1
								{
									OFFSET -13.966164 -0.268127 -3.067488
									CHANNELS 3 Xrotation Yrotation Zrotation
									JOINT RightHandRing2
									{
										OFFSET -3.162567 0.000000 0.000000
										CHANNELS 3 Xrotation Yrotation Zrotation
										JOINT RightHandRing3
										{
											OFFSET -3.324348 0.000000 0.000000
											CHANNELS 3 Xrotation Yrotation Zrotation
											End Site
											{
												OFFSET 0.861900 3.184998 0.405154
											}
										}
									}
								}
								JOINT RightHandPinky1
								{
									OFFSET -13.131393 -0.168503 -5.746925
									CHANNELS 3 Xrotation Yrotation Zrotation
									JOINT RightHandPinky2
									{
										OFFSET -2.849182 0.000000 0.000000
										CHANNELS 3 Xrotation Yrotation Zrotation
										JOINT RightHandPinky3
										{
											OFFSET -2.805038 0.000000 0.000000
											CHANNELS 3 Xrotation Yrotation Zrotation
											End Site
											{
												OFFSET 0.882500 2.642609 0.325652
											}
										}
									}
								}
							}
							JOINT Right_Sleeve
							{
								OFFSET -6.592125 -0.646545 0.805568
								CHANNELS 3 Xrotation Yrotation Zrotation
								End Site
								{
									OFFSET 0.000179 20.275787 -0.000000
								}
							}
						}
					}
				}
				JOINT Bind_Right_JacketString
				{
					OFFSET -3.534800 11.969597 7.200700
					CHANNELS 3 Xrotation Yrotation Zrotation
					JOINT Bind_Right_JacketString1
					{
						OFFSET -0.319900 -6.102600 2.794100
						CHANNELS 3 Xrotation Yrotation Zrotation
						End Site
						{
							OFFSET 0.000000 6.719452 0.000000
						}
					}
				}
				JOINT Bind_Left_JacketString
				{
					OFFSET 2.904800 11.969597 7.200700
					CHANNELS 3 Xrotation Yrotation Zrotation
					JOINT Bind_Left_JacketString1
					{
						OFFSET 0.364800 -5.904503 3.186800
						CHANNELS 3 Xrotation Yrotation Zrotation
						End Site
						{
							OFFSET 0.000000 6.719513 0.000000
						}
					}
				}
				JOINT HairE
				{
					OFFSET 5.915200 17.612701 -11.592200
					CHANNELS 3 Xrotation Yrotation Zrotation
					JOINT HairE1
					{
						OFFSET 0.289200 -7.171898 -1.284500
						CHANNELS 3 Xrotation Yrotation Zrotation
						End Site
						{
							OFFSET 0.000000 7.291756 0.000000
						}
					}
				}
				JOINT HairF
				{
					OFFSET -0.864800 17.612701 -11.592200
					CHANNELS 3 Xrotation Yrotation Zrotation
					JOINT HairF1
					{
						OFFSET 0.000000 -14.087097 -2.127501
						CHANNELS 3 Xrotation Yrotation Zrotation
						End Site
						{
							OFFSET 0.000000 14.246841 0.000000
						}
					}
				}
				JOINT HairG
				{
					OFFSET -8.087700 17.612701 -11.592200
					CHANNELS 3 Xrotation Yrotation Zrotation
					JOINT HairG1
					{
						OFFSET -0.293600 -6.081398 -0.910100
						CHANNELS 3 Xrotation Yrotation Zrotation
						End Site
						{
							OFFSET 0.000000 6.156120 0.000000
						}
					}
				}
			}
		}
	}
	JOINT Pouch
	{
		OFFSET 0.000000 4.394501 10.847300
		CHANNELS 3 Xrotation Yrotation Zrotation
		End Site
		{
			OFFSET 0.000000 21.880577 0.000000
		}
	}
	JOINT Bag
	{
		OFFSET -13.229000 4.813004 -0.593300
		CHANNELS 3 Xrotation Yrotation Zrotation
		End Site
		{
			OFFSET 0.000000 21.880577 0.000000
		}
	}
	JOINT OccupyGuyFacialAnim_Joint
	{
		OFFSET 1.000000 -70.206398 -1.655000
		CHANNELS 3 Xrotation Yrotation Zrotation
		End Site
		{
			OFFSET 0.000000 21.880577 0.000000
		}
	}
}
MOTION
Frames: 4
Frame Time: 0.033333
2.871765 70.489479 3.923728 -2.598225 -6.121644 2.126345 0.000000 -0.000000 0.000000 -9.612969 9.237978 0.131263 14.954989 6.381573 1.435531 -3.740927 1.566486 -2.232661 -0.000000 -0.000001 0.000000 0.000001 -0.000000 -0.000000 1.583356 -16.199776 -6.863692 16.085155 -9.411725 -3.712820 -13.677975 -7.490680 7.906272 0.000000 -0.000001 -0.000000 -0.000000 0.000001 -0.000000 3.618706 4.155621 -1.438794 1.007958 -0.469408 0.046129 1.460710 -1.210935 -0.293364 1.539983 3.098177 1.155332 3.681342 32.214085 -7.148827 0.000001 -0.000000 0.000000 0.000001 -0.000000 0.000000 0.000001 -0.000000 0.000001 0.000001 -0.000000 0.000000 -0.000000 -0.000000 0.000000 0.000001 -0.000000 0.000000 -0.000000 -0.000000 0.000000 0.000001 -0.000000 0.000000 0.000001 -0.000000 0.000000 -0.336053 -11.387153 -22.880311 13.241277 -13.750409 -42.152762 0.000025 -64.655944 0.000045 -146.719799 -1.926777 -6.249379 29.630600 -31.778671 18.446550 0.733748 0.134340 -1.606347 -0.000001 0.000001 -0.000001 -0.464352 5.250205 -57.676467 3.960194 5.538089 -71.114939 0.000001 0.000001 0.000000 2.092188 7.029030 -64.990794 2.632235 4.888701 -56.578616 0.000001 0.000001 0.000001 4.692791 8.158172 -68.255795 2.733762 4.953953 -57.761906 -0.000000 -0.000002 -0.000000 3.068235 7.724256 -77.841897 2.140426 4.527119 -50.591833 -0.000000 -0.000002 0.000001 0.000001 -0.000001 0.000003 1.766988 12.885555 7.302057 22.090744 37.595000 29.711890 -0.000779 85.132263 0.000858 -32.151685 -12.105562 22.794025 62.190607 24.602495 -14.926400 12.648684 -30.752951 -4.057476 0.000001 -0.000001 0.000000 -1.379237 0.831200 20.129954 1.144889 -3.060207 41.016061 0.000003 0.000001 -0.000001 0.530311 -4.734893 46.318931 5.582920 -4.564423 101.477951 0.000001 -0.000002 -0.000003 5.199406 -8.477873 52.869305 5.502512 -4.579974 100.469166 0.000001 -0.000000 -0.000004 5.577648 -8.355136 57.344301 2.509284 -4.133239 62.509618 -0.000000 0.000001 0.000001 0.000003 -0.000003 -0.000002 -0.000000 0.000000 -0.000000 -0.000000 0.000000 -0.000000 -0.000000 0.000000 -0.000000 -0.000000 0.000000 -0.000000 -0.000000 0.000000 -0.000000 -0.000000 0.000000 -0.000000 -0.000000 0.000000 -0.000000 -0.000000 0.000000 -0.000000 -0.000000 0.000000 -0.000000 -0.000000 0.000000 -0.000000 0.000000 -0.000000 0.000000 0.000000 -0.000000 0.000000 0.000000 -0.000000 0.000000 
2.865183 70.477913 3.937229 -2.651323 -5.707694 2.195567 -0.000000 -0.000000 -0.000000 -9.631678 9.225453 0.075988 15.050984 5.974652 1.386148 -3.786550 1.558614 -2.159122 -0.000000 -0.000000 -0.000000 -0.000001 0.000000 -0.000000 1.682172 -16.252618 -6.847735 16.161998 -9.440238 -3.749033 -13.752060 -7.864657 7.936577 0.000000 0.000003 -0.000000 -0.000000 -0.000001 -0.000000 3.619691 4.276057 -1.439863 1.015901 -0.469538 0.037391 1.458903 -1.212482 -0.298856 1.558934 3.132883 1.164684 3.965975 33.612724 -7.382975 0.000001 0.000002 0.000000 0.000001 0.000002 0.000000 0.000001 0.000002 -0.000000 0.000001 0.000002 -0.000000 0.000000 -0.000001 -0.000000 0.000001 0.000002 -0.000000 0.000000 -0.000001 -0.000000 0.000001 0.000002 0.000000 0.000001 0.000002 0.000000 -0.336824 -11.382209 -22.845620 13.256893 -13.480190 -42.239864 -0.000111 -65.052327 -0.000123 -146.501096 -2.168803 -6.045773 29.630597 -31.778671 18.446543 0.733748 0.134334 -1.606352 0.000001 0.000001 0.000000 -0.464351 5.250202 -57.676474 3.960197 5.538089 -71.114939 0.000001 -0.000000 -0.000000 2.092185 7.029028 -64.990800 2.632239 4.888702 -56.578616 -0.000000 0.000001 -0.000001 4.692792 8.158168 -68.255795 2.733764 4.953952 -57.761913 -0.000001 -0.000001 -0.000000 3.068233 7.724257 -77.841897 2.140431 4.527123 -50.591833 -0.000000 0.000000 0.000001 0.000003 0.000004 -0.000001 1.766988 12.885555 7.302058 22.090941 37.602288 29.704643 -0.000426 85.132550 0.000506 -32.238783 -11.988479 22.896811 62.190607 24.602493 -14.926398 12.648677 -30.752961 -4.057476 0.000001 0.000002 0.000000 -1.379238 0.831203 20.129952 1.144891 -3.060201 41.016058 -0.000002 0.000000 0.000000 0.530311 -4.734892 46.318924 5.582919 -4.564425 101.477951 0.000002 -0.000003 0.000001 5.199406 -8.477871 52.869308 5.502511 -4.579974 100.469159 0.000001 -0.000000 -0.000002 5.577650 -8.355137 57.344308 2.509284 -4.133237 62.509611 0.000001 0.000001 -0.000001 0.000003 -0.000002 0.000000 -0.000000 -0.000000 0.000000 -0.000000 -0.000000 0.000000 -0.000000 -0.000000 0.000000 -0.000000 -0.000000 0.000000 -0.000000 -0.000000 0.000000 -0.000000 -0.000000 0.000000 -0.000000 -0.000000 0.000000 -0.000000 -0.000000 0.000000 -0.000000 -0.000000 0.000000 -0.000000 -0.000000 0.000000 -0.000000 -0.000000 -0.000000 -0.000000 -0.000000 -0.000000 -0.000000 -0.000000 -0.000000 
2.860049 70.464668 3.946952 -2.714894 -5.255062 2.269768 0.000000 -0.000000 0.000000 -9.642837 9.121678 -0.024985 15.132489 5.695748 1.383549 -3.806894 1.550263 -2.114471 -0.000000 -0.000000 -0.000000 0.000001 -0.000000 0.000001 1.764210 -16.320411 -6.837979 16.307387 -9.439046 -3.779585 -13.870629 -8.264534 7.927877 0.000000 -0.000001 -0.000000 -0.000000 0.000003 -0.000000 3.619925 4.382756 -1.441235 1.024090 -0.469586 0.028434 1.457191 -1.213136 -0.304208 1.576213 3.159631 1.171436 4.261355 34.890683 -7.617492 0.000001 -0.000001 0.000000 0.000001 -0.000001 0.000000 0.000001 -0.000001 0.000000 0.000001 -0.000001 0.000000 0.000000 -0.000001 0.000000 0.000001 -0.000001 0.000000 0.000000 -0.000001 0.000000 0.000001 -0.000001 0.000000 0.000001 -0.000001 0.000000 -0.326864 -11.310229 -22.822862 13.281758 -13.290157 -42.295899 -0.000011 -65.418568 -0.000012 -146.293937 -2.403532 -5.839969 29.630600 -31.778671 18.446550 0.733749 0.134339 -1.606352 0.000000 -0.000000 0.000002 -0.464354 5.250202 -57.676467 3.960196 5.538090 -71.114939 0.000001 -0.000001 0.000001 2.092184 7.029028 -64.990794 2.632235 4.888699 -56.578616 -0.000000 0.000000 0.000001 4.692789 8.158169 -68.255795 2.733761 4.953951 -57.761913 -0.000001 0.000002 0.000000 3.068232 7.724258 -77.841897 2.140432 4.527125 -50.591833 -0.000000 0.000000 0.000001 0.000001 0.000000 -0.000000 1.766989 12.885555 7.302056 22.091118 37.609265 29.697557 -0.000106 85.132912 0.000144 -32.322672 -11.876875 23.002359 62.190607 24.602492 -14.926397 12.648680 -30.752954 -4.057478 -0.000001 0.000000 -0.000001 -1.379236 0.831194 20.129949 1.144891 -3.060202 41.016061 -0.000000 -0.000002 -0.000000 0.530311 -4.734900 46.318928 5.582919 -4.564425 101.477958 -0.000001 0.000001 -0.000001 5.199405 -8.477881 52.869308 5.502514 -4.579977 100.469166 0.000002 -0.000001 -0.000003 5.577649 -8.355140 57.344301 2.509287 -4.133238 62.509611 -0.000003 0.000002 -0.000003 0.000003 0.000001 0.000002 0.000000 0.000000 -0.000000 0.000000 -0.000000 -0.000000 0.000000 0.000000 0.000000 0.000000 0.000000 0.000000 0.000000 0.000000 -0.000000 0.000000 -0.000000 -0.000000 0.000000 0.000000 0.000000 0.000000 0.000000 0.000000 0.000000 0.000000 -0.000000 0.000000 -0.000000 -0.000000 0.000000 -0.000000 0.000000 0.000000 -0.000000 0.000000 0.000000 -0.000000 0.000000 
2.856319 70.450150 3.953137 -2.787584 -4.771073 2.347632 0.000000 0.000000 0.000000 -9.656229 9.067895 -0.109243 15.216830 5.292606 1.352812 -3.816032 1.541483 -2.041339 0.000000 0.000001 -0.000000 0.000001 -0.000000 0.000000 1.869906 -16.356141 -6.807077 16.432750 -9.474090 -3.834843 -13.973734 -8.697524 7.950076 0.000000 0.000000 0.000000 -0.000000 -0.000002 -0.000000 3.619554 4.476223 -1.442077 1.032525 -0.469550 0.019204 1.455522 -1.213074 -0.308072 1.592671 3.184230 1.175230 4.559759 36.026584 -7.843263 -0.000000 -0.000001 0.000000 -0.000000 -0.000001 0.000000 -0.000000 -0.000001 0.000000 -0.000000 -0.000001 0.000000 -0.000000 -0.000001 -0.000000 -0.000000 -0.000001 0.000000 -0.000000 -0.000001 -0.000000 -0.000000 -0.000001 0.000000 -0.000000 -0.000001 0.000000 -0.315646 -11.229757 -22.796745 13.353256 -13.148406 -42.306820 -0.000039 -65.784475 -0.000037 -146.146814 -2.661499 -5.665349 29.630593 -31.778678 18.446555 0.733748 0.134338 -1.606358 -0.000001 0.000002 0.000004 -0.464353 5.250203 -57.676460 3.960199 5.538090 -71.114939 0.000001 0.000002 0.000002 2.092189 7.029028 -64.990794 2.632235 4.888702 -56.578616 -0.000001 -0.000001 0.000002 4.692791 8.158169 -68.255795 2.733761 4.953952 -57.761913 -0.000001 0.000002 -0.000002 3.068230 7.724260 -77.841897 2.140428 4.527121 -50.591833 0.000000 -0.000003 -0.000001 -0.000003 0.000002 0.000001 1.766988 12.885553 7.302057 22.091255 37.616068 29.690552 0.000355 85.133882 -0.000350 -32.406058 -11.766489 23.111972 62.190607 24.602495 -14.926398 12.648683 -30.752954 -4.057476 0.000001 -0.000001 -0.000001 -1.379239 0.831197 20.129949 1.144890 -3.060202 41.016058 -0.000003 0.000000 -0.000003 0.530310 -4.734899 46.318928 5.582923 -4.564422 101.477951 0.000000 0.000001 0.000001 5.199405 -8.477878 52.869311 5.502509 -4.579977 100.469173 0.000000 -0.000004 -0.000002 5.577647 -8.355143 57.344308 2.509287 -4.133238 62.509618 0.000001 0.000001 0.000002 0.000003 -0.000000 -0.000002 -0.000000 0.000000 -0.000000 -0.000000 0.000000 -0.000000 -0.000000 0.000000 -0.000000 -0.000000 0.000000 -0.000000 -0.000000 0.000000 -0.000000 -0.000000 0.000000 -0.000000 -0.000000 0.000000 -0.000000 -0.000000 0.000000 -0.000000 -0.000000 0.000000 -0.000000 -0.000000 0.000000 -0.000000 0.000000 0.000000 0.000000 0.000000 0.000000 0.000000 0.000000 0.000000 0.000000 
